<svg width="25" height="24" viewBox="0 0 25 24" fill="none" xmlns="http://www.w3.org/2000/svg">
<path d="M12.3237 19.2C9.82373 19.2 7.61373 17.92 6.32373 16C6.35373 14 10.3237 12.9 12.3237 12.9C14.3237 12.9 18.2937 14 18.3237 16C17.6626 16.9844 16.7696 17.7912 15.7233 18.3492C14.677 18.9072 13.5095 19.1994 12.3237 19.2ZM12.3237 5C13.1194 5 13.8824 5.31607 14.4451 5.87868C15.0077 6.44129 15.3237 7.20435 15.3237 8C15.3237 8.79565 15.0077 9.55871 14.4451 10.1213C13.8824 10.6839 13.1194 11 12.3237 11C11.5281 11 10.765 10.6839 10.2024 10.1213C9.6398 9.55871 9.32373 8.79565 9.32373 8C9.32373 7.20435 9.6398 6.44129 10.2024 5.87868C10.765 5.31607 11.5281 5 12.3237 5ZM12.3237 2C11.0105 2 9.71015 2.25866 8.4969 2.7612C7.28364 3.26375 6.18125 4.00035 5.25266 4.92893C3.3773 6.8043 2.32373 9.34784 2.32373 12C2.32373 14.6522 3.3773 17.1957 5.25266 19.0711C6.18125 19.9997 7.28364 20.7362 8.4969 21.2388C9.71015 21.7413 11.0105 22 12.3237 22C14.9759 22 17.5194 20.9464 19.3948 19.0711C21.2702 17.1957 22.3237 14.6522 22.3237 12C22.3237 6.47 17.8237 2 12.3237 2Z" fill="white" fill-opacity="0.54"/>
</svg>
